# xmcd CD database file
#
# Track frame offsets:
#	150
#	15512
#	32912
#	47612
#	66737
#	88562
#	104687
#	119687
#	141287
#	176687
#	210512
#	230462
#	247562
#
# Disc length: 3585 seconds
#
# Revision: 6
# Processed by: cddbd v1.5.2PL0 Copyright (c) Steve Scherf et al.
# Submitted via: CDex 1.70beta3
#
DISCID=b40dff0d
DTITLE=BLANKEY JET CITY - LAST DANCE (DISC1)
DYEAR=2000
DGENRE=Rock
TTITLE0=おまえが欲しい (OPENING VISION BGM)
TTITLE1=★★★★★★★
TTITLE2=SALINGER
TTITLE3=パイナップルサンド
TTITLE4=ガソリンの揺れかた
TTITLE5=SEA SIDE JET CITY
TTITLE6=SKUNK
TTITLE7=SATURDAY NIGHT
TTITLE8=絶望という名の地下鉄
TTITLE9=幸せな人
TTITLE10=DERRINGER
TTITLE11=SWEET DAYS
TTITLE12=CAMARO
EXTD=YEAR: 2000
EXTT0=
EXTT1=
EXTT2=
EXTT3=
EXTT4=
EXTT5=
EXTT6=
EXTT7=
EXTT8=
EXTT9=
EXTT10=
EXTT11=
EXTT12=
PLAYORDER=
